<svg xmlns="http://www.w3.org/2000/svg" xmlns:xlink="http://www.w3.org/1999/xlink" width="569" zoomAndPan="magnify" viewBox="0 0 426.75 295.499996" height="394" preserveAspectRatio="xMidYMid meet" version="1.0"><defs><g/><clipPath id="41a12f107b"><path d="M 70 15 L 394 15 L 394 293 L 70 293 Z M 70 15 " clip-rule="nonzero"/></clipPath><clipPath id="07ad24b26b"><path d="M 67.472656 17.101562 L 396.152344 13.867188 L 398.886719 291.632812 L 70.207031 294.871094 Z M 67.472656 17.101562 " clip-rule="nonzero"/></clipPath><clipPath id="a6e581dbba"><path d="M 67.472656 17.101562 L 396.152344 13.867188 L 398.886719 291.632812 L 70.207031 294.871094 Z M 67.472656 17.101562 " clip-rule="nonzero"/></clipPath><clipPath id="df2f77e892"><rect x="0" width="193" y="0" height="158"/></clipPath><clipPath id="905e16e85d"><path d="M 99 104 L 122 104 L 122 167 L 99 167 Z M 99 104 " clip-rule="nonzero"/></clipPath><clipPath id="d9262282a4"><path d="M 107.339844 167.109375 L 98 106.429688 L 113.542969 104.039062 L 122.878906 164.71875 Z M 107.339844 167.109375 " clip-rule="nonzero"/></clipPath><clipPath id="60390352d5"><path d="M 107.339844 167.109375 L 98 106.429688 L 113.542969 104.039062 L 122.878906 164.71875 Z M 107.339844 167.109375 " clip-rule="nonzero"/></clipPath><clipPath id="5a6b3e7a40"><path d="M 319 79 L 342 79 L 342 140 L 319 140 Z M 319 79 " clip-rule="nonzero"/></clipPath><clipPath id="d547adc98e"><path d="M 327.902344 140.527344 L 318.679688 80.585938 L 333.480469 78.308594 L 342.703125 138.25 Z M 327.902344 140.527344 " clip-rule="nonzero"/></clipPath><clipPath id="e7d0f32ccb"><path d="M 327.902344 140.527344 L 318.679688 80.585938 L 333.480469 78.308594 L 342.703125 138.25 Z M 327.902344 140.527344 " clip-rule="nonzero"/></clipPath></defs><g clip-path="url(#41a12f107b)"><g clip-path="url(#07ad24b26b)"><g clip-path="url(#a6e581dbba)"><path fill="#eeecda" d="M 264.617188 15.277344 C 263.035156 15.292969 261.582031 16.039062 260.742188 17.386719 C 260.621094 17.632812 260.625 17.996094 260.507812 18.242188 C 229.792969 15.621094 197.695312 20.929688 168.296875 28.28125 C 144.363281 34.242188 119.71875 42.035156 100.515625 58.175781 C 80.222656 75.183594 72.0625 99.617188 70.609375 125.207031 C 68.824219 154.207031 71.347656 187.917969 93.355469 209.253906 C 102.332031 218.054688 114.207031 224.394531 127.125 225.117188 C 131.386719 225.320312 136.617188 224.539062 140.371094 222.308594 C 140.707031 244.105469 140.921875 265.902344 141.257812 287.695312 C 141.289062 290.863281 144.726562 293.75 147.632812 292.019531 C 148.367188 292.375 149.101562 292.734375 149.953125 292.726562 C 150.804688 292.71875 151.65625 292.464844 152.503906 291.847656 C 167.378906 281.472656 180.414062 269.410156 191.484375 256.027344 C 192.808594 254.550781 193.890625 252.835938 195.089844 251.242188 C 196.53125 249.15625 197.972656 247.195312 199.542969 245.597656 C 202.554688 242.277344 204.984375 241.890625 210.21875 241.472656 C 221.046875 240.511719 231.871094 239.1875 242.570312 237.5 C 284.273438 230.636719 315.46875 220.34375 340.773438 205.113281 C 360.261719 193.351562 385.023438 172.527344 391.894531 140.554688 C 392.125 139.210938 392.355469 137.871094 392.585938 136.527344 L 392.699219 135.917969 L 392.699219 135.675781 L 393.050781 134.210938 C 396.789062 105.921875 385.523438 74.855469 363.511719 53.152344 C 339.777344 29.882812 304.816406 16.585938 264.617188 15.277344 Z M 334.296875 42.234375 C 332.960938 42.613281 333.347656 44.679688 334.804688 44.421875 L 337.117188 44.035156 C 341.527344 46.671875 345.941406 49.671875 350.113281 53.164062 C 353.429688 55.929688 356.503906 58.824219 359.335938 61.839844 C 356.046875 61.871094 352.757812 61.90625 349.46875 61.816406 C 349.226562 61.816406 348.984375 61.941406 348.863281 61.941406 C 343.554688 54.933594 337.40625 48.539062 330.410156 43.371094 C 325.011719 39.28125 319.5 35.925781 313.746094 32.941406 C 320.589844 35.308594 327.5625 38.40625 334.296875 42.234375 Z M 360.320312 62.925781 C 369.058594 72.582031 375.625 83.601562 379.636719 95.371094 C 374.617188 92.863281 369.246094 91.335938 363.636719 90.78125 C 360.496094 80.824219 355.652344 71.375 349.480469 62.910156 C 353.132812 62.875 356.664062 62.960938 360.320312 62.925781 Z M 380.761719 98.527344 C 383.90625 108.605469 385.105469 119.066406 384.234375 129.304688 C 378.121094 127.050781 372.609375 123.9375 367.578125 119.96875 C 367.976562 110.953125 366.910156 101.710938 364.390625 92.84375 C 370.242188 93.640625 375.742188 95.53125 380.761719 98.527344 Z M 367.359375 122.652344 C 372.390625 126.375 378.023438 129.367188 384.011719 131.5 C 383.785156 133.449219 383.441406 135.523438 383.09375 137.476562 C 381.355469 146.136719 378.386719 154.082031 373.957031 161.675781 C 369.285156 157.21875 364.734375 152.632812 360.425781 147.804688 C 364.363281 139.851562 366.59375 131.304688 367.359375 122.652344 Z M 359.589844 149.640625 C 363.898438 154.347656 368.449219 158.929688 373 163.390625 C 368.207031 171.355469 361.945312 178.601562 354.09375 185.253906 C 349.546875 181.035156 345.121094 176.816406 340.574219 172.601562 C 343.714844 169.890625 346.730469 167.183594 349.378906 164.109375 C 353.597656 159.5625 356.960938 154.660156 359.589844 149.640625 Z M 338.882812 173.957031 C 343.429688 178.175781 347.855469 182.394531 352.402344 186.609375 C 345.878906 192.035156 338.378906 197.101562 329.777344 201.691406 C 325.710938 196.738281 320.921875 192.644531 315.410156 189.289062 C 323.890625 184.820312 331.753906 179.75 338.882812 173.957031 Z M 313.226562 190.40625 C 318.859375 193.640625 323.769531 197.609375 327.839844 202.5625 C 319.964844 206.660156 311.230469 210.277344 301.644531 213.660156 C 297.582031 209.191406 293.277344 204.972656 288.851562 200.875 C 296.980469 197.871094 305.230469 194.503906 313.226562 190.40625 Z M 286.546875 201.75 C 290.972656 205.847656 295.277344 210.066406 299.339844 214.535156 C 292.179688 217.039062 284.527344 219.308594 276.390625 221.335938 C 270.515625 218.347656 265.484375 214.5 261.175781 209.917969 C 265.304688 208.78125 269.433594 207.644531 273.5625 206.261719 C 277.808594 204.882812 282.179688 203.378906 286.546875 201.75 Z M 258.503906 210.671875 C 258.503906 210.796875 258.507812 210.917969 258.628906 210.914062 C 262.691406 215.382812 267.476562 219.109375 272.988281 222.222656 C 264.363281 224.253906 255.367188 226.171875 245.765625 227.847656 C 239.765625 224.742188 234.25 221.019531 229.335938 216.683594 C 239.0625 215.128906 248.785156 213.203125 258.503906 210.671875 Z M 227.035156 217.804688 C 231.578125 221.898438 236.726562 225.378906 242.117188 228.371094 C 240.050781 228.757812 237.984375 229.140625 235.792969 229.40625 C 230.6875 230.1875 225.578125 230.847656 220.589844 231.382812 C 212.398438 228.054688 204.566406 223.992188 197.089844 219.4375 C 206.953125 219.097656 216.808594 218.269531 226.660156 216.832031 C 226.542969 217.320312 226.664062 217.5625 227.035156 217.804688 Z M 192.585938 219.601562 C 199.820312 224.28125 207.410156 228.46875 215.359375 231.921875 C 212.074219 232.199219 208.789062 232.597656 205.625 232.871094 C 203.3125 233.015625 199.535156 232.6875 196.75 234.175781 C 195.175781 235.042969 193.851562 236.640625 192.652344 238.480469 C 188.640625 239.128906 184.625 239.53125 180.605469 239.449219 C 182.613281 233.097656 184.128906 226.382812 185.160156 219.675781 C 187.71875 219.773438 190.152344 219.75 192.585938 219.601562 Z M 179.894531 241.648438 C 183.671875 241.734375 187.445312 241.574219 191.214844 240.929688 C 191.09375 241.171875 190.976562 241.417969 190.734375 241.664062 C 190.015625 242.886719 189.417969 243.992188 188.9375 244.726562 C 185.8125 248.777344 182.5625 252.703125 179.066406 256.515625 C 177.246094 257.019531 175.417969 257.035156 173.59375 256.933594 C 176.101562 252.039062 178.121094 246.902344 179.894531 241.648438 Z M 172.636719 259.011719 C 173.980469 259.242188 175.320312 259.230469 176.65625 259.09375 C 173.644531 262.414062 170.386719 265.488281 167.007812 268.566406 C 168.925781 265.503906 170.84375 262.195312 172.636719 259.011719 Z M 124.777344 209.433594 C 75.980469 213.078125 75.164062 142.453125 81.527344 108.78125 C 90.90625 59.246094 139.097656 43.671875 182.84375 33.863281 C 229.140625 23.542969 281.472656 20.105469 322.058594 48.324219 C 355.410156 71.5 373.191406 121.132812 344.914062 155.875 C 326.988281 177.972656 295.203125 190.21875 268.859375 198.515625 C 240.691406 207.4375 211.261719 211.382812 181.785156 210.820312 C 179.347656 210.722656 177.171875 212.328125 176.953125 214.886719 C 174.378906 237.929688 165.09375 259.453125 149.917969 276.894531 C 149.707031 255.464844 149.375 234.15625 149.164062 212.722656 C 149.128906 208.949219 145.214844 207.40625 142.546875 208.40625 C 137.660156 206.75 129.644531 209.019531 124.777344 209.433594 Z M 124.777344 209.433594 " fill-opacity="1" fill-rule="nonzero"/></g></g></g><g transform="matrix(1, 0, 0, 1, 116, 32)"><g clip-path="url(#df2f77e892)"><g fill="#eeecda" fill-opacity="1"><g transform="translate(16.519738, 124.945245)"><g><path d="M 0.4375 0.65625 C 1.320312 2.53125 2.203125 3.554688 3.078125 3.734375 C 3.960938 3.921875 4.816406 3.5625 5.640625 2.65625 C 6.460938 1.757812 7.210938 0.640625 7.890625 -0.703125 C 8.578125 -2.054688 9.144531 -3.363281 9.59375 -4.625 C 10.050781 -5.894531 10.363281 -6.804688 10.53125 -7.359375 C 10.8125 -8.390625 11.65625 -9.234375 13.0625 -9.890625 C 14.476562 -10.546875 16.109375 -10.992188 17.953125 -11.234375 C 19.804688 -11.472656 21.566406 -11.535156 23.234375 -11.421875 C 24.898438 -11.316406 26.144531 -11.054688 26.96875 -10.640625 C 27.601562 -10.316406 28.332031 -9.71875 29.15625 -8.84375 C 29.976562 -7.976562 30.835938 -7.117188 31.734375 -6.265625 C 32.628906 -5.410156 33.5 -4.800781 34.34375 -4.4375 C 35.1875 -4.070312 35.953125 -4.195312 36.640625 -4.8125 C 37.328125 -5.4375 37.859375 -6.800781 38.234375 -8.90625 C 38.484375 -10.175781 38.363281 -12.101562 37.875 -14.6875 C 37.394531 -17.28125 36.644531 -20.242188 35.625 -23.578125 C 34.601562 -26.921875 33.414062 -30.316406 32.0625 -33.765625 C 30.707031 -37.210938 29.257812 -40.457031 27.71875 -43.5 C 26.175781 -46.539062 24.640625 -49.078125 23.109375 -51.109375 C 21.578125 -53.148438 20.132812 -54.378906 18.78125 -54.796875 C 17.445312 -55.148438 16.1875 -54.675781 15 -53.375 C 13.820312 -52.082031 12.703125 -50.257812 11.640625 -47.90625 C 10.585938 -45.5625 9.640625 -42.992188 8.796875 -40.203125 C 7.953125 -37.421875 7.1875 -34.675781 6.5 -31.96875 C 5.820312 -29.257812 5.269531 -26.90625 4.84375 -24.90625 C 4.425781 -22.90625 4.117188 -21.570312 3.921875 -20.90625 C 3.566406 -19.550781 3.082031 -17.941406 2.46875 -16.078125 C 1.851562 -14.210938 1.269531 -12.238281 0.71875 -10.15625 C 0.164062 -8.070312 -0.175781 -6.082031 -0.3125 -4.1875 C -0.457031 -2.289062 -0.207031 -0.675781 0.4375 0.65625 Z M 16.609375 -20.515625 C 15.046875 -20.242188 14.125 -20.488281 13.84375 -21.25 C 13.570312 -22.019531 13.675781 -23.023438 14.15625 -24.265625 C 14.644531 -25.503906 15.253906 -26.710938 15.984375 -27.890625 C 16.722656 -29.078125 17.328125 -29.9375 17.796875 -30.46875 C 17.984375 -30.3125 18.335938 -29.925781 18.859375 -29.3125 C 19.390625 -28.707031 19.882812 -27.976562 20.34375 -27.125 C 20.800781 -26.28125 21.054688 -25.40625 21.109375 -24.5 C 21.171875 -23.59375 20.878906 -22.785156 20.234375 -22.078125 C 19.585938 -21.378906 18.378906 -20.859375 16.609375 -20.515625 Z M 16.609375 -20.515625 "/></g></g></g><g fill="#eeecda" fill-opacity="1"><g transform="translate(58.294246, 119.546799)"><g><path d="M 10.40625 -1.4375 C 11.332031 -1.613281 11.738281 -1.691406 11.625 -1.671875 C 11.507812 -1.660156 11.25 -1.597656 10.84375 -1.484375 C 10.445312 -1.378906 10.207031 -1.320312 10.125 -1.3125 C 10.039062 -1.300781 10.425781 -1.378906 11.28125 -1.546875 C 10.363281 -1.367188 10.179688 -1.296875 10.734375 -1.328125 C 11.285156 -1.367188 12.332031 -1.5625 13.875 -1.90625 C 15.414062 -2.257812 17.171875 -2.785156 19.140625 -3.484375 C 21.109375 -4.179688 23.066406 -5.082031 25.015625 -6.1875 C 26.972656 -7.300781 28.660156 -8.625 30.078125 -10.15625 C 31.492188 -11.695312 32.367188 -13.484375 32.703125 -15.515625 C 32.960938 -17.148438 32.664062 -18.320312 31.8125 -19.03125 C 30.957031 -19.75 29.753906 -20.140625 28.203125 -20.203125 C 26.660156 -20.265625 25.015625 -20.148438 23.265625 -19.859375 C 21.515625 -19.578125 19.894531 -19.25 18.40625 -18.875 C 16.914062 -18.507812 15.773438 -18.253906 14.984375 -18.109375 C 14.617188 -23.585938 14.4375 -29.132812 14.4375 -34.75 C 14.445312 -40.375 13.898438 -45.882812 12.796875 -51.28125 C 12.472656 -52.894531 11.734375 -54.195312 10.578125 -55.1875 C 9.421875 -56.1875 8.101562 -56.820312 6.625 -57.09375 C 5.144531 -57.375 3.65625 -57.269531 2.15625 -56.78125 C 0.65625 -56.300781 -0.585938 -55.351562 -1.578125 -53.9375 C -2.484375 -52.695312 -3.003906 -51.019531 -3.140625 -48.90625 C -3.273438 -46.800781 -3.164062 -44.503906 -2.8125 -42.015625 C -2.46875 -39.535156 -2 -37.023438 -1.40625 -34.484375 C -0.8125 -31.941406 -0.242188 -29.566406 0.296875 -27.359375 C 0.847656 -25.160156 1.21875 -23.34375 1.40625 -21.90625 C 1.625 -20.757812 1.78125 -19.25 1.875 -17.375 C 1.96875 -15.507812 2.125 -13.570312 2.34375 -11.5625 C 2.570312 -9.5625 2.957031 -7.710938 3.5 -6.015625 C 4.039062 -4.316406 4.867188 -3.007812 5.984375 -2.09375 C 7.109375 -1.175781 8.582031 -0.957031 10.40625 -1.4375 Z M 10.40625 -1.4375 "/></g></g></g><g fill="#eeecda" fill-opacity="1"><g transform="translate(95.29204, 114.76564)"><g><path d="M 32 -8.71875 C 33.863281 -11.082031 35.375 -14.0625 36.53125 -17.65625 C 37.6875 -21.257812 38.429688 -25.050781 38.765625 -29.03125 C 39.097656 -33.007812 39.007812 -36.851562 38.5 -40.5625 C 37.988281 -44.269531 37.007812 -47.441406 35.5625 -50.078125 C 35.5 -50.535156 35.082031 -51.332031 34.3125 -52.46875 C 33.550781 -53.613281 32.472656 -54.816406 31.078125 -56.078125 C 29.679688 -57.335938 28.003906 -58.351562 26.046875 -59.125 C 24.097656 -59.90625 21.914062 -60.179688 19.5 -59.953125 C 17.09375 -59.734375 14.441406 -58.703125 11.546875 -56.859375 C 8.554688 -54.941406 6.097656 -52.5625 4.171875 -49.71875 C 2.242188 -46.875 0.847656 -43.765625 -0.015625 -40.390625 C -0.878906 -37.015625 -1.226562 -33.582031 -1.0625 -30.09375 C -0.90625 -26.613281 -0.265625 -23.273438 0.859375 -20.078125 C 1.765625 -17.660156 3.054688 -15.296875 4.734375 -12.984375 C 6.410156 -10.671875 8.359375 -8.640625 10.578125 -6.890625 C 12.804688 -5.148438 15.15625 -3.9375 17.625 -3.25 C 20.101562 -2.5625 22.570312 -2.613281 25.03125 -3.40625 C 27.5 -4.207031 29.820312 -5.976562 32 -8.71875 Z M 19.046875 -11.8125 C 17.273438 -12.289062 15.910156 -13.28125 14.953125 -14.78125 C 14.003906 -16.28125 13.367188 -18.007812 13.046875 -19.96875 C 12.734375 -21.925781 12.628906 -23.867188 12.734375 -25.796875 C 12.835938 -27.722656 13.066406 -29.351562 13.421875 -30.6875 C 13.691406 -31.84375 14.113281 -33.148438 14.6875 -34.609375 C 15.257812 -36.066406 15.992188 -37.425781 16.890625 -38.6875 C 17.796875 -39.957031 18.863281 -40.863281 20.09375 -41.40625 C 21.320312 -41.945312 22.707031 -41.878906 24.25 -41.203125 C 25.800781 -40.578125 26.957031 -39.375 27.71875 -37.59375 C 28.488281 -35.8125 28.9375 -33.71875 29.0625 -31.3125 C 29.195312 -28.90625 29.054688 -26.46875 28.640625 -24 C 28.222656 -21.53125 27.566406 -19.296875 26.671875 -17.296875 C 25.785156 -15.304688 24.691406 -13.785156 23.390625 -12.734375 C 22.085938 -11.679688 20.640625 -11.375 19.046875 -11.8125 Z M 19.046875 -11.8125 "/></g></g></g><g fill="#eeecda" fill-opacity="1"><g transform="translate(140.887921, 108.873364)"><g><path d="M 32 -8.71875 C 33.863281 -11.082031 35.375 -14.0625 36.53125 -17.65625 C 37.6875 -21.257812 38.429688 -25.050781 38.765625 -29.03125 C 39.097656 -33.007812 39.007812 -36.851562 38.5 -40.5625 C 37.988281 -44.269531 37.007812 -47.441406 35.5625 -50.078125 C 35.5 -50.535156 35.082031 -51.332031 34.3125 -52.46875 C 33.550781 -53.613281 32.472656 -54.816406 31.078125 -56.078125 C 29.679688 -57.335938 28.003906 -58.351562 26.046875 -59.125 C 24.097656 -59.90625 21.914062 -60.179688 19.5 -59.953125 C 17.09375 -59.734375 14.441406 -58.703125 11.546875 -56.859375 C 8.554688 -54.941406 6.097656 -52.5625 4.171875 -49.71875 C 2.242188 -46.875 0.847656 -43.765625 -0.015625 -40.390625 C -0.878906 -37.015625 -1.226562 -33.582031 -1.0625 -30.09375 C -0.90625 -26.613281 -0.265625 -23.273438 0.859375 -20.078125 C 1.765625 -17.660156 3.054688 -15.296875 4.734375 -12.984375 C 6.410156 -10.671875 8.359375 -8.640625 10.578125 -6.890625 C 12.804688 -5.148438 15.15625 -3.9375 17.625 -3.25 C 20.101562 -2.5625 22.570312 -2.613281 25.03125 -3.40625 C 27.5 -4.207031 29.820312 -5.976562 32 -8.71875 Z M 19.046875 -11.8125 C 17.273438 -12.289062 15.910156 -13.28125 14.953125 -14.78125 C 14.003906 -16.28125 13.367188 -18.007812 13.046875 -19.96875 C 12.734375 -21.925781 12.628906 -23.867188 12.734375 -25.796875 C 12.835938 -27.722656 13.066406 -29.351562 13.421875 -30.6875 C 13.691406 -31.84375 14.113281 -33.148438 14.6875 -34.609375 C 15.257812 -36.066406 15.992188 -37.425781 16.890625 -38.6875 C 17.796875 -39.957031 18.863281 -40.863281 20.09375 -41.40625 C 21.320312 -41.945312 22.707031 -41.878906 24.25 -41.203125 C 25.800781 -40.578125 26.957031 -39.375 27.71875 -37.59375 C 28.488281 -35.8125 28.9375 -33.71875 29.0625 -31.3125 C 29.195312 -28.90625 29.054688 -26.46875 28.640625 -24 C 28.222656 -21.53125 27.566406 -19.296875 26.671875 -17.296875 C 25.785156 -15.304688 24.691406 -13.785156 23.390625 -12.734375 C 22.085938 -11.679688 20.640625 -11.375 19.046875 -11.8125 Z M 19.046875 -11.8125 "/></g></g></g></g></g><g clip-path="url(#905e16e85d)"><g clip-path="url(#d9262282a4)"><g clip-path="url(#60390352d5)"><path fill="#eeecda" d="M 106.164062 159.472656 C 106.8125 163.683594 110.746094 166.570312 114.957031 165.921875 C 119.167969 165.273438 122.050781 161.339844 121.40625 157.128906 C 120.757812 152.917969 116.820312 150.035156 112.613281 150.679688 C 108.402344 151.328125 105.515625 155.265625 106.164062 159.472656 Z M 99.128906 113.753906 C 99.777344 117.964844 103.710938 120.847656 107.921875 120.203125 C 112.132812 119.554688 115.015625 115.617188 114.367188 111.410156 C 113.722656 107.199219 109.785156 104.3125 105.574219 104.960938 C 101.367188 105.609375 98.480469 109.542969 99.128906 113.753906 Z M 102.648438 136.613281 C 103.292969 140.824219 107.230469 143.710938 111.4375 143.0625 C 115.648438 142.414062 118.535156 138.480469 117.886719 134.269531 C 117.238281 130.058594 113.304688 127.171875 109.09375 127.820312 C 104.882812 128.46875 102 132.402344 102.648438 136.613281 Z M 102.648438 136.613281 " fill-opacity="1" fill-rule="nonzero"/></g></g></g><g clip-path="url(#5a6b3e7a40)"><g clip-path="url(#d547adc98e)"><g clip-path="url(#e7d0f32ccb)"><path fill="#eeecda" d="M 326.746094 133.015625 C 327.386719 137.160156 331.257812 140 335.398438 139.359375 C 339.542969 138.722656 342.382812 134.851562 341.746094 130.707031 C 341.105469 126.566406 337.234375 123.726562 333.09375 124.363281 C 328.949219 125 326.109375 128.875 326.746094 133.015625 Z M 319.824219 88.027344 C 320.460938 92.167969 324.332031 95.007812 328.476562 94.371094 C 332.621094 93.730469 335.457031 89.859375 334.820312 85.71875 C 334.183594 81.574219 330.3125 78.734375 326.167969 79.371094 C 322.027344 80.011719 319.1875 83.882812 319.824219 88.027344 Z M 323.285156 110.519531 C 323.921875 114.664062 327.796875 117.503906 331.9375 116.867188 C 336.082031 116.226562 338.921875 112.355469 338.28125 108.214844 C 337.644531 104.070312 333.773438 101.230469 329.628906 101.867188 C 325.488281 102.507812 322.648438 106.378906 323.285156 110.519531 Z M 323.285156 110.519531 " fill-opacity="1" fill-rule="nonzero"/></g></g></g></svg>