<svg xmlns="http://www.w3.org/2000/svg" xmlns:xlink="http://www.w3.org/1999/xlink" width="500" zoomAndPan="magnify" viewBox="0 0 375 374.999991" height="500" preserveAspectRatio="xMidYMid meet" version="1.0"><defs><g/><clipPath id="54b2f015a4"><path d="M 1 1 L 373 1 L 373 320 L 1 320 Z M 1 1 " clip-rule="nonzero"/></clipPath><clipPath id="d7e8632898"><path d="M -1.179688 4.070312 L 374.972656 0.367188 L 378.101562 318.125 L 1.949219 321.828125 Z M -1.179688 4.070312 " clip-rule="nonzero"/></clipPath><clipPath id="28b8e281c2"><path d="M -1.179688 4.070312 L 374.972656 0.367188 L 378.101562 318.125 L 1.949219 321.828125 Z M -1.179688 4.070312 " clip-rule="nonzero"/></clipPath><clipPath id="54419f1950"><rect x="0" width="221" y="0" height="181"/></clipPath><clipPath id="93aa944df4"><path d="M 34 104 L 61 104 L 61 175 L 34 175 Z M 34 104 " clip-rule="nonzero"/></clipPath><clipPath id="8555fc1675"><path d="M 44.488281 175.910156 L 33.761719 106.199219 L 51 103.542969 L 61.730469 173.257812 Z M 44.488281 175.910156 " clip-rule="nonzero"/></clipPath><clipPath id="a16833202f"><path d="M 44.488281 175.910156 L 33.761719 106.199219 L 51 103.542969 L 61.730469 173.257812 Z M 44.488281 175.910156 " clip-rule="nonzero"/></clipPath><clipPath id="d043db4927"><path d="M 287 75 L 314 75 L 314 145 L 287 145 Z M 287 75 " clip-rule="nonzero"/></clipPath><clipPath id="d3d79a013e"><path d="M 297.136719 145.449219 L 286.523438 76.488281 L 303.765625 73.835938 L 314.378906 142.796875 Z M 297.136719 145.449219 " clip-rule="nonzero"/></clipPath><clipPath id="9970c8bf7f"><path d="M 297.136719 145.449219 L 286.523438 76.488281 L 303.765625 73.835938 L 314.378906 142.796875 Z M 297.136719 145.449219 " clip-rule="nonzero"/></clipPath><clipPath id="25f60bbcb1"><rect x="0" width="375" y="0" height="321"/></clipPath></defs><g transform="matrix(1, 0, 0, 1, 0, 27)"><g clip-path="url(#25f60bbcb1)"><g clip-path="url(#54b2f015a4)"><g clip-path="url(#d7e8632898)"><g clip-path="url(#28b8e281c2)"><path fill="currentColor" d="M 224.648438 1.984375 C 222.835938 2 221.167969 2.855469 220.207031 4.398438 C 220.070312 4.679688 220.074219 5.097656 219.9375 5.375 C 184.753906 2.375 147.988281 8.457031 114.3125 16.878906 C 86.898438 23.707031 58.667969 32.632812 36.671875 51.121094 C 13.425781 70.601562 4.078125 98.59375 2.414062 127.90625 C 0.367188 161.125 3.257812 199.738281 28.46875 224.179688 C 38.753906 234.261719 52.355469 241.523438 67.148438 242.351562 C 72.035156 242.582031 78.023438 241.6875 82.324219 239.132812 C 82.707031 264.101562 82.953125 289.070312 83.339844 314.035156 C 83.375 317.660156 87.3125 320.96875 90.644531 318.984375 C 91.484375 319.394531 92.324219 319.804688 93.300781 319.796875 C 94.277344 319.785156 95.25 319.496094 96.21875 318.789062 C 113.261719 306.90625 128.191406 293.085938 140.875 277.757812 C 142.390625 276.066406 143.628906 274.101562 145.003906 272.277344 C 146.65625 269.886719 148.308594 267.640625 150.101562 265.808594 C 153.554688 262.007812 156.339844 261.5625 162.332031 261.085938 C 174.738281 259.984375 187.136719 258.46875 199.394531 256.535156 C 247.164062 248.671875 282.898438 236.878906 311.882812 219.4375 C 334.207031 205.964844 362.570312 182.109375 370.441406 145.484375 C 370.703125 143.949219 370.96875 142.410156 371.230469 140.875 L 371.363281 140.175781 L 371.363281 139.894531 L 371.765625 138.21875 C 376.046875 105.8125 363.144531 70.226562 337.929688 45.367188 C 310.742188 18.710938 270.695312 3.480469 224.648438 1.984375 Z M 304.464844 32.863281 C 302.933594 33.296875 303.375 35.664062 305.046875 35.367188 L 307.695312 34.921875 C 312.746094 37.941406 317.800781 41.378906 322.582031 45.378906 C 326.382812 48.550781 329.902344 51.863281 333.144531 55.320312 C 329.378906 55.355469 325.613281 55.394531 321.84375 55.289062 C 321.566406 55.292969 321.289062 55.433594 321.148438 55.4375 C 315.070312 47.40625 308.023438 40.082031 300.015625 34.160156 C 293.832031 29.480469 287.515625 25.636719 280.925781 22.214844 C 288.761719 24.925781 296.75 28.476562 304.464844 32.863281 Z M 334.273438 56.5625 C 344.285156 67.625 351.804688 80.246094 356.398438 93.730469 C 350.652344 90.855469 344.496094 89.105469 338.074219 88.46875 C 334.472656 77.066406 328.925781 66.242188 321.855469 56.546875 C 326.042969 56.503906 330.085938 56.605469 334.273438 56.5625 Z M 357.691406 97.34375 C 361.292969 108.886719 362.664062 120.871094 361.664062 132.597656 C 354.664062 130.015625 348.351562 126.453125 342.585938 121.90625 C 343.042969 111.578125 341.824219 100.988281 338.933594 90.832031 C 345.640625 91.742188 351.9375 93.914062 357.691406 97.34375 Z M 342.339844 124.976562 C 348.101562 129.246094 354.550781 132.667969 361.410156 135.113281 C 361.152344 137.347656 360.757812 139.722656 360.363281 141.957031 C 358.367188 151.882812 354.96875 160.980469 349.894531 169.679688 C 344.542969 164.570312 339.328125 159.324219 334.390625 153.792969 C 338.90625 144.679688 341.460938 134.890625 342.339844 124.976562 Z M 333.4375 155.894531 C 338.371094 161.285156 343.585938 166.535156 348.796875 171.644531 C 343.308594 180.765625 336.132812 189.066406 327.140625 196.6875 C 321.933594 191.855469 316.863281 187.023438 311.65625 182.195312 C 315.25 179.089844 318.707031 175.988281 321.742188 172.46875 C 326.574219 167.261719 330.425781 161.640625 333.4375 155.894531 Z M 309.71875 183.746094 C 314.925781 188.578125 319.996094 193.410156 325.203125 198.242188 C 317.734375 204.453125 309.140625 210.257812 299.289062 215.515625 C 294.628906 209.84375 289.144531 205.152344 282.828125 201.308594 C 292.542969 196.191406 301.550781 190.382812 309.71875 183.746094 Z M 280.328125 202.589844 C 286.78125 206.292969 292.40625 210.839844 297.066406 216.515625 C 288.046875 221.207031 278.042969 225.351562 267.058594 229.226562 C 262.40625 224.109375 257.476562 219.277344 252.410156 214.582031 C 261.722656 211.144531 271.167969 207.285156 280.328125 202.589844 Z M 249.769531 215.585938 C 254.835938 220.277344 259.765625 225.113281 264.417969 230.226562 C 256.21875 233.097656 247.453125 235.695312 238.132812 238.019531 C 231.402344 234.597656 225.640625 230.191406 220.703125 224.9375 C 225.433594 223.636719 230.164062 222.335938 234.890625 220.753906 C 239.757812 219.171875 244.765625 217.449219 249.769531 215.585938 Z M 217.644531 225.804688 C 217.644531 225.945312 217.648438 226.085938 217.785156 226.082031 C 222.441406 231.199219 227.921875 235.46875 234.234375 239.035156 C 224.355469 241.363281 214.054688 243.558594 203.050781 245.480469 C 196.179688 241.917969 189.863281 237.65625 184.234375 232.691406 C 195.375 230.90625 206.511719 228.703125 217.644531 225.804688 Z M 181.59375 233.972656 C 186.800781 238.664062 192.699219 242.652344 198.871094 246.078125 C 196.503906 246.519531 194.136719 246.960938 191.628906 247.265625 C 185.78125 248.160156 179.929688 248.914062 174.214844 249.527344 C 164.832031 245.714844 155.859375 241.0625 147.296875 235.84375 C 158.59375 235.453125 169.882812 234.507812 181.164062 232.859375 C 181.03125 233.417969 181.171875 233.699219 181.59375 233.972656 Z M 142.136719 236.035156 C 150.421875 241.394531 159.117188 246.191406 168.222656 250.144531 C 164.460938 250.460938 160.699219 250.917969 157.074219 251.230469 C 154.425781 251.398438 150.097656 251.023438 146.90625 252.726562 C 145.101562 253.722656 143.585938 255.550781 142.210938 257.65625 C 137.613281 258.398438 133.015625 258.863281 128.410156 258.769531 C 130.710938 251.492188 132.449219 243.800781 133.628906 236.117188 C 136.558594 236.230469 139.347656 236.203125 142.136719 236.035156 Z M 127.597656 261.289062 C 131.925781 261.382812 136.246094 261.203125 140.566406 260.460938 C 140.429688 260.742188 140.292969 261.023438 140.015625 261.304688 C 139.191406 262.707031 138.507812 263.96875 137.957031 264.8125 C 134.375 269.449219 130.652344 273.953125 126.652344 278.316406 C 124.5625 278.894531 122.472656 278.914062 120.378906 278.796875 C 123.253906 273.1875 125.566406 267.304688 127.597656 261.289062 Z M 119.285156 281.179688 C 120.824219 281.441406 122.355469 281.425781 123.890625 281.273438 C 120.441406 285.074219 116.707031 288.597656 112.835938 292.121094 C 115.035156 288.613281 117.230469 284.824219 119.285156 281.179688 Z M 64.460938 224.382812 C 8.566406 228.5625 7.628906 147.660156 14.921875 109.089844 C 25.664062 52.347656 80.867188 34.507812 130.976562 23.269531 C 184.007812 11.449219 243.953125 7.511719 290.445312 39.835938 C 328.648438 66.382812 349.019531 123.238281 316.628906 163.035156 C 296.089844 188.34375 259.679688 202.375 229.503906 211.878906 C 197.242188 222.101562 163.527344 226.617188 129.761719 225.972656 C 126.972656 225.859375 124.480469 227.699219 124.230469 230.632812 C 121.28125 257.023438 110.640625 281.679688 93.261719 301.660156 C 93.019531 277.113281 92.640625 252.703125 92.398438 228.15625 C 92.355469 223.832031 87.875 222.0625 84.816406 223.207031 C 79.21875 221.308594 70.039062 223.910156 64.460938 224.382812 Z M 64.460938 224.382812 " fill-opacity="1" fill-rule="nonzero"/></g></g></g><g transform="matrix(1, 0, 0, 1, 55, 21)"><g clip-path="url(#54419f1950)"><g fill="currentColor" fill-opacity="1"><g transform="translate(18.330906, 143.257746)"><g><path d="M 0.515625 0.75 C 1.523438 2.914062 2.53125 4.097656 3.53125 4.296875 C 4.539062 4.503906 5.519531 4.085938 6.46875 3.046875 C 7.414062 2.015625 8.273438 0.726562 9.046875 -0.8125 C 9.816406 -2.363281 10.460938 -3.863281 10.984375 -5.3125 C 11.503906 -6.769531 11.863281 -7.8125 12.0625 -8.4375 C 12.382812 -9.625 13.351562 -10.59375 14.96875 -11.34375 C 16.59375 -12.09375 18.46875 -12.601562 20.59375 -12.875 C 22.71875 -13.144531 24.726562 -13.21875 26.625 -13.09375 C 28.53125 -12.96875 29.953125 -12.664062 30.890625 -12.1875 C 31.609375 -11.800781 32.4375 -11.113281 33.375 -10.125 C 34.3125 -9.132812 35.296875 -8.148438 36.328125 -7.171875 C 37.367188 -6.191406 38.375 -5.492188 39.34375 -5.078125 C 40.3125 -4.671875 41.1875 -4.816406 41.96875 -5.515625 C 42.757812 -6.222656 43.363281 -7.789062 43.78125 -10.21875 C 44.070312 -11.664062 43.941406 -13.875 43.390625 -16.84375 C 42.835938 -19.8125 41.976562 -23.203125 40.8125 -27.015625 C 39.644531 -30.835938 38.28125 -34.722656 36.71875 -38.671875 C 35.164062 -42.628906 33.503906 -46.347656 31.734375 -49.828125 C 29.972656 -53.304688 28.210938 -56.210938 26.453125 -58.546875 C 24.703125 -60.878906 23.054688 -62.285156 21.515625 -62.765625 C 19.992188 -63.171875 18.550781 -62.625 17.1875 -61.125 C 15.820312 -59.632812 14.535156 -57.546875 13.328125 -54.859375 C 12.128906 -52.179688 11.046875 -49.25 10.078125 -46.0625 C 9.109375 -42.875 8.234375 -39.726562 7.453125 -36.625 C 6.679688 -33.519531 6.054688 -30.820312 5.578125 -28.53125 C 5.097656 -26.25 4.734375 -24.722656 4.484375 -23.953125 C 4.078125 -22.410156 3.523438 -20.566406 2.828125 -18.421875 C 2.128906 -16.273438 1.460938 -14.015625 0.828125 -11.640625 C 0.191406 -9.265625 -0.203125 -6.988281 -0.359375 -4.8125 C -0.523438 -2.632812 -0.234375 -0.78125 0.515625 0.75 Z M 19.015625 -23.484375 C 17.234375 -23.191406 16.1875 -23.476562 15.875 -24.34375 C 15.5625 -25.21875 15.679688 -26.363281 16.234375 -27.78125 C 16.796875 -29.195312 17.492188 -30.585938 18.328125 -31.953125 C 19.160156 -33.316406 19.84375 -34.296875 20.375 -34.890625 C 20.601562 -34.722656 21.015625 -34.285156 21.609375 -33.578125 C 22.203125 -32.878906 22.757812 -32.039062 23.28125 -31.0625 C 23.8125 -30.09375 24.109375 -29.085938 24.171875 -28.046875 C 24.242188 -27.015625 23.910156 -26.097656 23.171875 -25.296875 C 22.441406 -24.492188 21.054688 -23.890625 19.015625 -23.484375 Z M 19.015625 -23.484375 "/></g></g></g><g fill="currentColor" fill-opacity="1"><g transform="translate(66.183101, 137.07389)"><g><path d="M 11.921875 -1.640625 C 12.972656 -1.847656 13.429688 -1.941406 13.296875 -1.921875 C 13.160156 -1.910156 12.867188 -1.835938 12.421875 -1.703125 C 11.972656 -1.578125 11.695312 -1.507812 11.59375 -1.5 C 11.488281 -1.488281 11.929688 -1.578125 12.921875 -1.765625 C 11.867188 -1.566406 11.660156 -1.488281 12.296875 -1.53125 C 12.929688 -1.582031 14.132812 -1.804688 15.90625 -2.203125 C 17.675781 -2.609375 19.6875 -3.207031 21.9375 -4 C 24.1875 -4.789062 26.429688 -5.816406 28.671875 -7.078125 C 30.910156 -8.347656 32.84375 -9.863281 34.46875 -11.625 C 36.09375 -13.382812 37.085938 -15.4375 37.453125 -17.78125 C 37.742188 -19.644531 37.394531 -20.984375 36.40625 -21.796875 C 35.425781 -22.609375 34.054688 -23.054688 32.296875 -23.140625 C 30.546875 -23.222656 28.660156 -23.097656 26.640625 -22.765625 C 24.628906 -22.441406 22.773438 -22.066406 21.078125 -21.640625 C 19.378906 -21.210938 18.066406 -20.90625 17.140625 -20.71875 C 16.734375 -27 16.535156 -33.363281 16.546875 -39.8125 C 16.554688 -46.257812 15.925781 -52.566406 14.65625 -58.734375 C 14.289062 -60.578125 13.441406 -62.070312 12.109375 -63.21875 C 10.773438 -64.363281 9.257812 -65.09375 7.5625 -65.40625 C 5.875 -65.726562 4.171875 -65.609375 2.453125 -65.046875 C 0.742188 -64.492188 -0.671875 -63.398438 -1.796875 -61.765625 C -2.835938 -60.347656 -3.4375 -58.429688 -3.59375 -56.015625 C -3.757812 -53.609375 -3.640625 -50.984375 -3.234375 -48.140625 C -2.835938 -45.296875 -2.296875 -42.414062 -1.609375 -39.5 C -0.929688 -36.582031 -0.28125 -33.863281 0.34375 -31.34375 C 0.96875 -28.832031 1.390625 -26.742188 1.609375 -25.078125 C 1.847656 -23.765625 2.019531 -22.035156 2.125 -19.890625 C 2.238281 -17.742188 2.425781 -15.523438 2.6875 -13.234375 C 2.945312 -10.941406 3.390625 -8.820312 4.015625 -6.875 C 4.640625 -4.9375 5.585938 -3.441406 6.859375 -2.390625 C 8.140625 -1.347656 9.828125 -1.097656 11.921875 -1.640625 Z M 11.921875 -1.640625 "/></g></g></g><g fill="currentColor" fill-opacity="1"><g transform="translate(108.563628, 131.597129)"><g><path d="M 36.625 -9.984375 C 38.78125 -12.691406 40.515625 -16.101562 41.828125 -20.21875 C 43.148438 -24.332031 44.003906 -28.671875 44.390625 -33.234375 C 44.785156 -37.804688 44.691406 -42.210938 44.109375 -46.453125 C 43.535156 -50.691406 42.410156 -54.328125 40.734375 -57.359375 C 40.671875 -57.890625 40.195312 -58.800781 39.3125 -60.09375 C 38.4375 -61.394531 37.195312 -62.769531 35.59375 -64.21875 C 33.988281 -65.664062 32.066406 -66.835938 29.828125 -67.734375 C 27.585938 -68.628906 25.085938 -68.945312 22.328125 -68.6875 C 19.566406 -68.425781 16.535156 -67.238281 13.234375 -65.125 C 9.816406 -62.925781 7 -60.203125 4.78125 -56.953125 C 2.570312 -53.703125 0.976562 -50.144531 0 -46.28125 C -0.988281 -42.414062 -1.394531 -38.484375 -1.21875 -34.484375 C -1.039062 -30.492188 -0.3125 -26.660156 0.96875 -22.984375 C 2 -20.210938 3.476562 -17.503906 5.40625 -14.859375 C 7.332031 -12.210938 9.570312 -9.890625 12.125 -7.890625 C 14.675781 -5.898438 17.367188 -4.507812 20.203125 -3.71875 C 23.035156 -2.9375 25.859375 -2.992188 28.671875 -3.890625 C 31.484375 -4.796875 34.132812 -6.828125 36.625 -9.984375 Z M 21.828125 -13.546875 C 19.796875 -14.097656 18.234375 -15.226562 17.140625 -16.9375 C 16.046875 -18.644531 15.316406 -20.617188 14.953125 -22.859375 C 14.597656 -25.109375 14.476562 -27.335938 14.59375 -29.546875 C 14.707031 -31.765625 14.972656 -33.640625 15.390625 -35.171875 C 15.679688 -36.492188 16.160156 -37.984375 16.828125 -39.640625 C 17.492188 -41.304688 18.335938 -42.863281 19.359375 -44.3125 C 20.390625 -45.769531 21.601562 -46.804688 23 -47.421875 C 24.40625 -48.035156 26 -47.957031 27.78125 -47.1875 C 29.5625 -46.46875 30.890625 -45.082031 31.765625 -43.03125 C 32.640625 -40.988281 33.148438 -38.597656 33.296875 -35.859375 C 33.441406 -33.117188 33.28125 -30.332031 32.8125 -27.5 C 32.34375 -24.675781 31.59375 -22.113281 30.5625 -19.8125 C 29.539062 -17.519531 28.28125 -15.773438 26.78125 -14.578125 C 25.289062 -13.378906 23.640625 -13.035156 21.828125 -13.546875 Z M 21.828125 -13.546875 "/></g></g></g><g fill="currentColor" fill-opacity="1"><g transform="translate(160.79316, 124.847598)"><g><path d="M 36.625 -9.984375 C 38.78125 -12.691406 40.515625 -16.101562 41.828125 -20.21875 C 43.148438 -24.332031 44.003906 -28.671875 44.390625 -33.234375 C 44.785156 -37.804688 44.691406 -42.210938 44.109375 -46.453125 C 43.535156 -50.691406 42.410156 -54.328125 40.734375 -57.359375 C 40.671875 -57.890625 40.195312 -58.800781 39.3125 -60.09375 C 38.4375 -61.394531 37.195312 -62.769531 35.59375 -64.21875 C 33.988281 -65.664062 32.066406 -66.835938 29.828125 -67.734375 C 27.585938 -68.628906 25.085938 -68.945312 22.328125 -68.6875 C 19.566406 -68.425781 16.535156 -67.238281 13.234375 -65.125 C 9.816406 -62.925781 7 -60.203125 4.78125 -56.953125 C 2.570312 -53.703125 0.976562 -50.144531 0 -46.28125 C -0.988281 -42.414062 -1.394531 -38.484375 -1.21875 -34.484375 C -1.039062 -30.492188 -0.3125 -26.660156 0.96875 -22.984375 C 2 -20.210938 3.476562 -17.503906 5.40625 -14.859375 C 7.332031 -12.210938 9.570312 -9.890625 12.125 -7.890625 C 14.675781 -5.898438 17.367188 -4.507812 20.203125 -3.71875 C 23.035156 -2.9375 25.859375 -2.992188 28.671875 -3.890625 C 31.484375 -4.796875 34.132812 -6.828125 36.625 -9.984375 Z M 21.828125 -13.546875 C 19.796875 -14.097656 18.234375 -15.226562 17.140625 -16.9375 C 16.046875 -18.644531 15.316406 -20.617188 14.953125 -22.859375 C 14.597656 -25.109375 14.476562 -27.335938 14.59375 -29.546875 C 14.707031 -31.765625 14.972656 -33.640625 15.390625 -35.171875 C 15.679688 -36.492188 16.160156 -37.984375 16.828125 -39.640625 C 17.492188 -41.304688 18.335938 -42.863281 19.359375 -44.3125 C 20.390625 -45.769531 21.601562 -46.804688 23 -47.421875 C 24.40625 -48.035156 26 -47.957031 27.78125 -47.1875 C 29.5625 -46.46875 30.890625 -45.082031 31.765625 -43.03125 C 32.640625 -40.988281 33.148438 -38.597656 33.296875 -35.859375 C 33.441406 -33.117188 33.28125 -30.332031 32.8125 -27.5 C 32.34375 -24.675781 31.59375 -22.113281 30.5625 -19.8125 C 29.539062 -17.519531 28.28125 -15.773438 26.78125 -14.578125 C 25.289062 -13.378906 23.640625 -13.035156 21.828125 -13.546875 Z M 21.828125 -13.546875 "/></g></g></g></g></g><g clip-path="url(#93aa944df4)"><g clip-path="url(#8555fc1675)"><g clip-path="url(#a16833202f)"><path fill="currentColor" d="M 43.144531 167.167969 C 43.886719 171.992188 48.394531 175.296875 53.21875 174.554688 C 58.042969 173.8125 61.347656 169.304688 60.605469 164.480469 C 59.863281 159.65625 55.355469 156.347656 50.53125 157.089844 C 45.707031 157.832031 42.402344 162.34375 43.144531 167.167969 Z M 35.082031 114.777344 C 35.824219 119.601562 40.332031 122.90625 45.15625 122.164062 C 49.980469 121.421875 53.285156 116.914062 52.542969 112.089844 C 51.800781 107.265625 47.292969 103.960938 42.46875 104.703125 C 37.644531 105.445312 34.339844 109.953125 35.082031 114.777344 Z M 39.113281 140.972656 C 39.855469 145.796875 44.363281 149.101562 49.1875 148.359375 C 54.011719 147.617188 57.316406 143.109375 56.574219 138.285156 C 55.832031 133.460938 51.324219 130.152344 46.5 130.898438 C 41.675781 131.640625 38.371094 136.148438 39.113281 140.972656 Z M 39.113281 140.972656 " fill-opacity="1" fill-rule="nonzero"/></g></g></g><g clip-path="url(#d043db4927)"><g clip-path="url(#d3d79a013e)"><g clip-path="url(#9970c8bf7f)"><path fill="currentColor" d="M 295.816406 136.851562 C 296.546875 141.601562 300.980469 144.851562 305.726562 144.121094 C 310.472656 143.390625 313.726562 138.957031 312.996094 134.210938 C 312.265625 129.460938 307.832031 126.210938 303.082031 126.941406 C 298.335938 127.671875 295.085938 132.105469 295.816406 136.851562 Z M 287.882812 85.308594 C 288.613281 90.054688 293.046875 93.308594 297.796875 92.578125 C 302.542969 91.847656 305.792969 87.410156 305.0625 82.664062 C 304.332031 77.917969 299.898438 74.664062 295.152344 75.394531 C 290.40625 76.125 287.152344 80.5625 287.882812 85.308594 Z M 291.847656 111.082031 C 292.578125 115.828125 297.015625 119.078125 301.761719 118.347656 C 306.507812 117.617188 309.761719 113.183594 309.03125 108.4375 C 308.300781 103.691406 303.863281 100.4375 299.117188 101.167969 C 294.371094 101.898438 291.117188 106.335938 291.847656 111.082031 Z M 291.847656 111.082031 " fill-opacity="1" fill-rule="nonzero"/></g></g></g></g></g></svg>